<svg width="500" height="352" viewBox="0 0 500 352" fill="none" xmlns="http://www.w3.org/2000/svg">
<path opacity="0.1" d="M250 351.277C388.071 351.277 500 346.356 500 340.285C500 334.214 388.071 329.292 250 329.292C111.929 329.292 0 334.214 0 340.285C0 346.356 111.929 351.277 250 351.277Z" fill="black"/>
<path d="M435.775 341.338H444.592L439.487 321.385H425.103L435.775 341.338Z" fill="#353B42"/>
<path d="M101.217 341.338H92.4005L97.5047 321.385H111.889L101.217 341.338Z" fill="#353B42"/>
<path d="M121.239 163.465C121.239 157.651 125.949 152.941 131.763 152.941H418.824C424.634 152.941 429.349 157.651 429.349 163.465V274.199C429.349 280.008 424.639 284.723 418.824 284.723H131.763C125.949 284.723 121.239 280.013 121.239 274.199V163.465Z" fill="#9B3737"/>
<path d="M121.239 163.465C121.239 157.651 125.949 152.941 131.763 152.941H385.879C391.689 152.941 396.403 157.651 396.403 163.465V275.127C396.403 280.937 391.693 285.651 385.879 285.651H131.763C125.949 285.651 121.239 280.941 121.239 275.127V163.465Z" fill="#B23F3F"/>
<path d="M121.239 311.019C121.239 316.828 116.924 321.385 111.11 321.385H45.85C40.0359 321.385 34.9316 316.833 34.9316 311.019V201.209C34.9316 195.399 40.0359 190.527 45.85 190.527H111.11C116.924 190.527 121.239 195.394 121.239 201.209V311.019Z" fill="#9B3737"/>
<path d="M68.3411 262.441C68.3411 257.095 73.0509 252.766 78.8651 252.766H385.415C391.225 252.766 395.939 257.095 395.939 262.441V275.517C395.939 280.858 391.229 285.192 385.415 285.192H78.8651C73.0509 285.192 68.3411 280.858 68.3411 275.517V262.441Z" fill="#C44343"/>
<path d="M396.403 310.787C396.403 316.596 389.443 321.385 386.733 321.385H59.2183C47.3858 321.385 45.5993 316.601 45.5993 310.787V295.637C45.5993 289.827 50.8427 285.187 57.0884 285.187H385.731C391.976 285.187 396.394 289.822 396.394 295.637V310.787H396.403Z" fill="#D34444"/>
<path d="M34.9316 201.051C34.9316 195.241 39.6415 190.527 45.4556 190.527H58.2812C64.0907 190.527 68.8051 195.237 68.8051 201.051V310.861C68.8051 316.675 64.0953 321.385 58.2812 321.385H45.4556C39.6415 321.385 34.9316 316.675 34.9316 310.861V201.051Z" fill="#D34444"/>
<path d="M383.805 341.338H392.621L387.517 321.385H373.133L383.805 341.338Z" fill="#5D656D"/>
<path d="M49.2467 341.338H40.4303L45.5345 321.385H59.9191L49.2467 341.338Z" fill="#5D656D"/>
<path d="M362.994 201.051C362.994 195.241 367.704 190.527 373.518 190.527H438.782C444.597 190.527 449.306 195.237 449.306 201.051V310.861C449.306 316.675 444.597 321.385 438.782 321.385H373.518C367.704 321.385 362.994 316.675 362.994 310.861V201.051Z" fill="#9B3737"/>
<path d="M362.53 201.051C362.53 195.241 367.24 190.527 373.054 190.527H385.884C391.698 190.527 396.408 195.237 396.408 201.051V310.861C396.408 316.675 391.698 321.385 385.884 321.385H373.054C367.24 321.385 362.53 316.675 362.53 310.861V201.051Z" fill="#D34444"/>
<path d="M252.473 169.089C252.125 168.81 251.823 168.523 251.568 168.235C251.164 167.776 250.877 167.27 250.659 166.639L250.649 166.606L250.635 166.579C250.343 165.85 250.199 165.057 250.209 164.217V164.166L250.204 164.115C250.046 161.655 250.366 158.166 251.225 153.145L251.596 150.932L251.684 150.407C254.728 132.478 257.883 113.94 260.802 107.857L260.816 107.834L260.825 107.81C260.839 107.778 260.858 107.745 260.876 107.713L260.937 107.602C260.997 107.481 261.067 107.351 261.136 107.23C262.487 104.743 264.821 103.012 267.544 102.47C269.034 102.168 270.602 102.247 272.078 102.688C273.229 103.036 274.287 103.588 275.219 104.335C277.382 106.066 278.667 108.65 278.746 111.421L278.75 111.62L278.815 111.81C278.839 111.875 278.862 111.945 278.89 112.01C278.273 115.082 277.655 118.381 277.006 121.861C273.27 141.786 268.157 169.07 259.206 170.866L259.178 170.871L259.122 170.885L259.048 170.903C258.974 170.922 258.9 170.94 258.825 170.959L258.445 171.052C258.167 171.107 257.846 171.14 257.447 171.149L257.303 171.158C256.923 171.182 256.566 171.2 256.338 171.121L256.287 171.103C256.232 171.08 256.176 171.061 256.12 171.042L255.995 170.996L255.958 170.991C255.805 170.94 255.387 170.787 254.835 170.523C254.737 170.476 254.663 170.439 254.589 170.402L254.547 170.379L254.371 170.291L254.31 170.263C254.129 170.165 253.949 170.063 253.772 169.961L253.54 169.822L253.536 169.817L253.494 169.79C253.443 169.757 253.396 169.729 253.345 169.697C253.007 169.493 252.728 169.293 252.473 169.089Z" fill="#A96644"/>
<path d="M280.245 111.917C280.184 111.731 280.115 111.569 280.054 111.388C279.934 106.906 276.978 102.794 272.454 101.43C270.779 100.924 268.988 100.841 267.285 101.18C264.125 101.811 261.494 103.815 259.995 106.576C259.916 106.715 259.837 106.859 259.758 107.017C259.712 107.11 259.665 107.193 259.624 107.291C256.812 113.147 253.847 129.926 250.974 146.797C256.018 147.702 264.422 149.131 272.315 150.097C275.6 137.986 277.971 123.197 280.245 111.917Z" fill="#354259"/>
<path d="M160.458 267.795C160.458 267.795 151.535 267.791 140.412 263.053C140.412 263.053 129.332 244.455 122.52 260.325L162.657 296.031C162.657 296.031 171.775 288.505 174.323 280.291C174.323 280.291 173.729 278.96 171.093 279.029C168.448 279.099 162.982 275.642 161.275 272.756C161.279 272.76 162.435 268.747 160.458 267.795Z" fill="#383635"/>
<path d="M165.506 293.409C163.808 295.126 162.657 296.036 162.657 296.036L122.52 260.329C123.174 258.812 123.842 257.638 124.422 256.858L165.506 293.409Z" fill="#383635"/>
<path d="M220.358 321.677C220.358 321.677 213.681 327.594 202.22 331.436C202.22 331.436 181.59 324.884 187.028 341.273L240.752 341.333C240.752 341.333 242.571 329.649 239.026 321.817C239.026 321.817 237.699 321.213 235.773 323.018C233.843 324.828 227.458 325.872 224.27 324.847C224.27 324.847 222.47 321.079 220.358 321.677Z" fill="#383635"/>
<path d="M241.142 337.482C241.012 339.89 240.757 341.338 240.757 341.338L187.032 341.278C186.513 339.709 186.234 338.387 186.151 337.422L241.142 337.482Z" fill="#383635"/>
<path d="M321.57 251.819C321.872 251.838 322.164 251.87 322.471 251.87C331.816 251.921 339.44 244.39 339.496 235.036C339.551 225.718 332.067 218.122 322.763 218.015V217.923L237.699 224.011C237.666 224.011 237.638 224.006 237.606 224.006C229.824 224.015 223.523 230.326 223.528 238.103C223.537 245.884 229.848 252.181 237.629 252.177C238.061 252.177 238.488 252.149 238.91 252.112L321.57 251.819Z" fill="#1C2533"/>
<path d="M273.461 217.463C273.461 217.463 263.916 250.655 299.924 251.179L310.137 252.116C322.034 253.211 330.902 252.905 335.38 248.242C344.391 241.161 342.372 223.56 342.372 223.56C341.955 220.851 341.156 207.942 341.444 206.48L274.393 204.276C274.477 205.853 274.203 214.572 273.461 217.463Z" fill="#1C2533"/>
<path d="M340.266 150.106C340.925 140.923 346.586 128.149 350.618 118.2C354.33 117.286 357.086 113.945 357.086 109.95C357.086 105.249 350.706 102.085 346.261 100.572C344.934 100.122 343.806 99.8016 342.855 99.5974C331.542 93.9039 313.78 93.8993 313.78 93.8993L290.328 94.4979C290.328 94.4979 277.818 95.0593 263.317 101.815C263.317 101.815 263.781 113.648 263.907 124.051C263.986 130.357 269.271 166.263 269.118 175.107C269.73 181.362 269.484 200.155 268.807 209.969C268.797 210.094 268.858 210.215 268.964 210.331C269.702 212.192 285.149 213.677 304.685 213.677C324.002 213.677 339.315 212.224 340.377 210.391C340.396 210.391 340.419 210.391 340.437 210.387C340.437 210.326 340.433 210.252 340.437 210.197C340.526 204.034 338.902 185.279 339.11 179.311C339.458 169.576 339.57 159.823 340.266 150.106Z" fill="#414F6D"/>
<path d="M312.03 86.9762L291.195 87.0273L290.713 89.5422L298.977 100.321L302.894 99.8852L311.543 90.4146L312.03 86.9762Z" fill="#252D3A"/>
<path d="M301.627 105.449C309.868 105.272 317.139 99.7877 317.51 94.0663C309.979 93.2961 303.367 94.02 303.367 94.02L301.645 94.0571C301.645 94.0571 294.889 93.6766 286.383 95.0315C287.191 100.595 293.525 105.616 301.627 105.449Z" fill="#914627"/>
<path d="M309.292 80.8882H293.288V97.2635H309.292V80.8882Z" fill="#914627"/>
<path d="M293.288 83.1201V87.7232C296.583 88.7116 303.264 90.4748 309.292 90.5862V83.1201H293.288Z" fill="#7A361E"/>
<path d="M299.07 148.194C307.97 137.104 318.434 101.468 320.192 94.2242C319.635 94.1546 313.909 93.7184 313.909 93.7184L299.265 98.7948L290.323 94.5026C290.323 94.5026 284.737 95.0269 282.259 95.6301C285.832 113.834 299.07 148.194 299.07 148.194Z" fill="#414F6D"/>
<path d="M279.182 51.8683C279.182 51.8683 271.238 50.0725 272.125 57.7057C273.011 65.3388 280.379 62.1788 280.379 62.1788L279.182 51.8683Z" fill="#914627"/>
<path d="M316.856 47.4833C316.856 47.4833 324.179 43.9103 325.065 51.5434C325.951 59.1766 318.053 57.7938 318.053 57.7938L316.856 47.4833Z" fill="#A96644"/>
<path d="M319.148 60.8425C320.601 73.3385 312.369 84.5631 300.773 85.9134C289.173 87.2637 278.588 78.2293 277.131 65.7332L274.797 45.6644C273.345 33.1683 281.572 21.9437 293.173 20.5934C304.773 19.2431 315.362 28.2775 316.814 40.7736L319.148 60.8425Z" fill="#A96644"/>
<path d="M310.759 42.8941L312.183 41.0938C312.183 41.0938 311.534 45.7293 317.668 48.1654L316.81 40.7782C315.357 28.2822 304.768 19.2477 293.168 20.598C281.563 21.9483 273.336 33.1683 274.793 45.669L275.303 50.0679C283.075 50.1282 298.94 49.3672 310.759 42.8941Z" fill="#914627"/>
<path d="M312.902 30.1198C314.494 32.8714 315.585 36.0035 315.979 39.4094L318.313 59.4783C319.765 71.9743 311.538 83.199 299.938 84.5493C292.031 85.468 284.602 81.561 280.208 75.023C284.449 82.3638 292.333 86.8972 300.768 85.9135C312.369 84.5632 320.601 73.3386 319.144 60.8425L316.81 40.7737C316.35 36.797 314.953 33.173 312.902 30.1198Z" fill="#914627"/>
<path d="M304.133 29.3493C304.272 28.825 308.972 29.5303 309.539 29.767C311.924 30.7693 313.005 33.8411 313.552 36.0266C314.248 38.8061 314.439 41.3396 314.332 44.198C314.067 51.0608 317.905 56.9585 318.698 58.4248C318.879 56.9678 319.046 55.5015 319.241 54.0491C319.849 49.5806 321.506 46.5042 323.274 42.5554C325.204 38.2261 324.865 31.5117 322.457 27.5072C321.056 25.1825 319.979 23.8739 317.511 22.6907C317.506 22.6907 307.186 17.7442 304.133 29.3493Z" fill="#333332"/>
<path d="M297.831 29.0384C297.831 29.0384 290.259 30.7321 284.765 31.3725C284.765 31.3725 292.945 21.9528 297.831 29.0384Z" fill="#1E1E1E"/>
<path d="M274.626 31.9709C274.626 31.9709 272.709 34.9778 273.41 39.9985C274.111 45.0192 275.651 53.7706 275.651 53.7706C275.651 53.7706 274.584 37.5995 277.35 32.4628L274.626 31.9709Z" fill="#474747"/>
<path d="M312.912 22.0642C312.912 22.0642 307.887 11.7444 298.379 13.7768C288.871 15.8139 281.642 17.4658 280.203 17.0528C280.203 17.0528 277.558 17.2477 277.674 20.2453C277.674 20.2453 270.663 22.802 273.085 30.6393C273.085 30.6393 274.435 33.2657 275.679 33.0058C275.679 33.0058 275.47 33.7251 276.704 33.3492C276.704 33.3492 281.688 40.3095 288.449 38.5926C288.449 38.5926 285.126 35.9616 285.549 31.623C285.869 28.361 293.423 25.0247 297.831 29.0338C297.831 29.0338 302.444 29.7716 304.133 29.3447C304.133 29.3494 311.376 27.8088 312.912 22.0642Z" fill="#333332"/>
<path d="M285.762 57.8262C285.957 59.5013 285.442 60.9397 284.611 61.0372C283.781 61.1346 282.945 59.8539 282.751 58.1742C282.556 56.4944 283.071 55.0559 283.901 54.9631C284.737 54.8703 285.567 56.1464 285.762 57.8262Z" fill="#502F26"/>
<path d="M306.392 55.4272C306.587 57.1023 306.072 58.5408 305.242 58.6382C304.411 58.7356 303.58 57.4549 303.381 55.7752C303.186 54.0954 303.701 52.657 304.532 52.5642C305.362 52.4667 306.197 53.7474 306.392 55.4272Z" fill="#502F26"/>
<path d="M290.36 69.9927L304.68 68.3269C304.68 68.3269 306.09 68.1227 305.325 70.4243C304.847 71.8767 303.445 74.9438 298.522 75.6491C292.68 76.4844 290.119 72.0623 290.119 72.0623C290.119 72.0623 288.917 70.1598 290.36 69.9927Z" fill="#B20B0B"/>
<path d="M305.496 69.7887C305.803 68.1646 304.68 68.327 304.68 68.327L290.36 69.9929C289.284 70.1181 289.678 71.2086 289.952 71.7654C292.787 72.1598 298.513 72.3918 305.496 69.7887Z" fill="white"/>
<path d="M293.947 60.4293C293.947 60.4293 290.49 60.7031 290.834 63.645C291.177 66.5868 296.421 65.2087 296.332 63.0046C296.249 60.8005 294.662 44.6341 293.947 60.4293Z" fill="#914627"/>
<path d="M306.731 49.0237C305.748 48.8242 304.745 48.787 303.766 48.9031C302.782 49.0191 301.817 49.2836 300.908 49.7012C300.569 49.8543 300.165 49.7058 300.012 49.3717C299.859 49.033 300.003 48.6339 300.342 48.4762C301.381 47.9982 302.485 47.692 303.604 47.562C304.727 47.4321 305.868 47.4785 306.991 47.7013C307.353 47.7755 307.594 48.1328 307.515 48.4947C307.455 48.787 307.214 48.9959 306.931 49.0283C306.875 49.0423 306.805 49.0376 306.731 49.0237Z" fill="#502F26"/>
<path d="M278.05 51.9285C277.897 51.5897 278.041 51.1907 278.379 51.0329C279.419 50.555 280.523 50.2487 281.641 50.1188C282.764 49.9889 283.906 50.0353 285.029 50.258C285.395 50.3323 285.627 50.6849 285.558 51.0515C285.484 51.4134 285.126 51.6501 284.764 51.5758C283.781 51.3763 282.783 51.3392 281.804 51.4552C280.82 51.5712 279.855 51.8357 278.946 52.2533C278.881 52.2858 278.811 52.3043 278.741 52.309C278.458 52.3507 278.171 52.1976 278.05 51.9285Z" fill="#502F26"/>
<path d="M317.413 61.2274C317.533 62.2576 315.334 63.3619 312.504 63.6914C309.673 64.0208 307.279 63.4547 307.158 62.42C307.037 61.3898 309.237 60.2901 312.067 59.9607C314.898 59.6312 317.297 60.202 317.413 61.2274Z" fill="#914627"/>
<path d="M286.305 64.8466C286.375 65.4452 285.103 66.0809 283.461 66.2712C281.823 66.4614 280.44 66.132 280.37 65.5334C280.301 64.9395 281.572 64.2991 283.21 64.1089C284.853 63.9233 286.236 64.2527 286.305 64.8466Z" fill="#914627"/>
<path d="M303.97 28.5558C303.798 28.4908 303.71 28.3006 303.771 28.1289C305.882 22.375 312.346 21.8136 312.373 21.8043C312.554 21.7857 312.717 21.9249 312.735 22.1059C312.749 22.2869 312.615 22.4493 312.434 22.4678C312.434 22.4678 312.063 22.5003 311.459 22.6395C310.852 22.7741 310.021 23.0154 309.135 23.4191C307.353 24.2357 305.362 25.6974 304.397 28.3562C304.346 28.4908 304.221 28.5743 304.081 28.5743C304.044 28.5743 304.007 28.5697 303.97 28.5558Z" fill="#444444"/>
<path d="M277.331 32.7969C277.145 32.783 277.006 32.6252 277.02 32.4443C277.233 28.9966 278.839 26.8528 280.973 25.6417C283.103 24.426 285.725 24.0919 288.068 24.0919C289.502 24.0919 290.834 24.2172 291.882 24.3564C296.402 24.9457 299.506 27.2658 299.534 27.2844C299.682 27.3957 299.71 27.6046 299.604 27.7484C299.492 27.8969 299.283 27.9247 299.14 27.8133C299.135 27.8133 298.402 27.2612 297.103 26.6301C295.808 25.9944 293.966 25.2937 291.799 25.0107C290.769 24.8761 289.465 24.7508 288.068 24.7508C285.79 24.7508 283.27 25.0849 281.307 26.2125C279.344 27.3447 277.906 29.2193 277.688 32.4814C277.679 32.6577 277.53 32.7923 277.358 32.7923C277.345 32.7969 277.34 32.7969 277.331 32.7969Z" fill="#444444"/>
<path d="M295.78 24.4632C291.502 21.0758 287.237 20.2359 284.017 20.2313C282.384 20.2313 281.019 20.4494 280.063 20.6675C279.112 20.8856 278.583 21.099 278.583 21.099C278.412 21.1686 278.217 21.0851 278.152 20.9134C278.082 20.7417 278.166 20.5515 278.337 20.4819C278.365 20.4726 280.63 19.5677 284.017 19.5677C287.353 19.5677 291.785 20.454 296.193 23.9435C296.337 24.0548 296.36 24.2683 296.249 24.4121C296.184 24.4956 296.086 24.5374 295.989 24.5374C295.91 24.5328 295.84 24.5096 295.78 24.4632Z" fill="#444444"/>
<path d="M309.144 20.7834C307.121 17.4471 304.453 16.4588 301.692 16.4495C299.307 16.4495 296.871 17.2244 294.871 17.9622C293.089 18.6118 290.745 18.8021 288.546 18.8021C285.177 18.8021 282.147 18.352 282.138 18.352C281.957 18.3241 281.832 18.1571 281.855 17.9715C281.883 17.7905 282.05 17.6652 282.231 17.6931C282.235 17.6931 285.228 18.1339 288.541 18.1339C290.699 18.1339 292.996 17.939 294.639 17.3358C296.657 16.5933 299.158 15.7859 301.687 15.7813C304.606 15.772 307.589 16.9042 309.71 20.4401C309.807 20.5978 309.756 20.802 309.599 20.8948C309.543 20.9273 309.487 20.9412 309.427 20.9412C309.315 20.9458 309.204 20.8855 309.144 20.7834Z" fill="#444444"/>
<path d="M316.828 52.1095C315.482 49.5991 315.148 46.8707 315.148 44.1562C315.148 41.3442 315.505 38.5369 315.505 35.9755C315.505 34.6159 315.408 33.3259 315.106 32.1427C314.109 28.1753 310.573 27.6556 308.638 27.6417C307.923 27.6417 307.469 27.7159 307.464 27.7159C307.283 27.7438 307.111 27.6231 307.083 27.4422C307.056 27.2612 307.176 27.0895 307.357 27.0617C307.371 27.0617 307.877 26.9781 308.638 26.9781C310.647 26.9642 314.642 27.5814 315.751 31.9849C316.067 33.2471 316.169 34.5881 316.169 35.9801C316.169 38.6018 315.807 41.4045 315.812 44.1608C315.812 46.8243 316.141 49.4274 317.417 51.7985C317.505 51.961 317.44 52.1605 317.283 52.2487C317.232 52.2765 317.18 52.2858 317.125 52.2858C317.004 52.2812 316.888 52.2208 316.828 52.1095Z" fill="#444444"/>
<path d="M316.285 93.8995L312.03 86.9763L299.557 98.6743L308.063 106.409L316.285 93.8995Z" fill="#354259"/>
<path d="M299.557 98.6742L293.177 105.635L286.621 94.9157L291.196 87.0273L299.557 98.6742Z" fill="#354259"/>
<path d="M291.177 116.302H272.152V120.014H291.177V116.302Z" fill="#F0F0F0"/>
<path d="M268.978 122.896H293.571L293.367 129.866C293.367 129.866 282.3 134.988 280.458 134.172C278.616 133.35 268.983 129.661 268.983 129.661V122.896H268.978Z" fill="#354259"/>
<path d="M312.132 122.896H336.725L336.521 129.866C336.521 129.866 325.454 134.988 323.612 134.172C321.77 133.35 312.137 129.661 312.137 129.661V122.896H312.132Z" fill="#354259"/>
<path d="M323.051 126.789C323.051 126.789 320.266 126.093 319.983 123.708C319.7 121.318 319.867 117.23 319.867 117.23C319.867 117.23 322.262 117.936 324.331 115.736C324.331 115.736 327.213 118.13 329.129 117.81L328.257 124.344C328.257 124.339 327.616 127.745 323.051 126.789Z" fill="#F7EA92"/>
<path d="M283.267 94.1168L263.565 100.168L264.11 101.943L283.812 95.8911L283.267 94.1168Z" fill="#354259"/>
<path d="M270.974 30.839C270.974 30.839 264.032 24.9042 264.422 21.489C264.811 18.0739 268.166 13.4151 268.166 13.4151C268.166 13.4151 280.727 6.86313 284.616 1.5037C284.616 1.5037 286.769 -1.72587 290.88 1.28098C295.409 4.58944 307.455 8.47792 312.852 9.11363C312.852 9.11363 315.464 9.35493 316.392 10.6031C316.392 10.6031 325.524 20.561 330.521 23.9066C330.521 23.9066 337.486 29.215 324.74 33.9526L270.974 30.839Z" fill="#2D435E"/>
<path d="M286.783 0.0884488C287.799 -0.138921 289.173 0.0327698 290.88 1.28098C295.409 4.58944 307.455 8.47792 312.852 9.11363C312.852 9.11363 315.464 9.35493 316.392 10.6031C316.392 10.6031 325.524 20.561 330.521 23.9066C330.521 23.9066 337.486 29.215 324.74 33.9526L290.449 31.9666C288.073 20.3336 287.103 6.07894 286.783 0.0884488Z" fill="#25384C"/>
<path d="M324.281 39.2331L273.053 39.5765L270.436 28.4168C270.436 28.4168 299.827 16.0228 324.995 31.0617L324.281 39.2331Z" fill="#354C6D"/>
<path d="M273.053 39.5766C273.053 39.5766 256.413 46.2724 271.684 47.5485C286.955 48.8199 312.109 41.4141 313.422 39.3075C313.422 39.3075 284.389 38.1057 273.053 39.5766Z" fill="#262628"/>
<path d="M272.394 46.0496C274.519 44.4302 276.561 42.7319 278.458 40.8479C279.043 40.2679 279.586 39.6508 280.143 39.0475C282.44 38.9501 284.927 38.8991 287.479 38.8712C281.321 41.8827 276.807 45.2283 273.953 47.6829C273.136 47.6597 272.343 47.6226 271.572 47.5577C271.192 47.5252 270.83 47.4881 270.487 47.4509C271.132 46.9916 271.767 46.5276 272.394 46.0496Z" fill="#727272"/>
<path d="M289.873 31.614C289.873 31.614 296.694 30.4818 294.982 20.575C294.982 20.575 291.613 20.575 288.323 18.2966C288.323 18.2966 286.198 20.8859 282.593 21.8093C282.593 21.8093 282.338 31.1407 289.873 31.614Z" fill="#F4CF34"/>
<path d="M287.943 18.7048L294.987 26.1245C294.365 28.8947 292.769 30.296 291.521 30.9828L282.746 21.7627C285.377 21.0435 287.201 19.4565 287.943 18.7048Z" fill="#F4DF87"/>
<path d="M298.861 207.245V99.3237C298.861 98.9386 299.172 98.6277 299.557 98.6277C299.943 98.6277 300.254 98.9386 300.254 99.3237V207.245C300.254 207.631 299.943 207.941 299.557 207.941C299.172 207.941 298.861 207.631 298.861 207.245Z" fill="#354259"/>
<path d="M304.62 119.597C305.773 119.597 306.708 118.662 306.708 117.509C306.708 116.355 305.773 115.421 304.62 115.421C303.467 115.421 302.532 116.355 302.532 117.509C302.532 118.662 303.467 119.597 304.62 119.597Z" fill="#354259"/>
<path d="M304.62 143.262C305.773 143.262 306.708 142.327 306.708 141.174C306.708 140.02 305.773 139.085 304.62 139.085C303.467 139.085 302.532 140.02 302.532 141.174C302.532 142.327 303.467 143.262 304.62 143.262Z" fill="#354259"/>
<path d="M304.62 166.927C305.773 166.927 306.708 165.992 306.708 164.839C306.708 163.685 305.773 162.75 304.62 162.75C303.467 162.75 302.532 163.685 302.532 164.839C302.532 165.992 303.467 166.927 304.62 166.927Z" fill="#354259"/>
<path d="M304.62 190.592C305.773 190.592 306.708 189.657 306.708 188.504C306.708 187.35 305.773 186.416 304.62 186.416C303.467 186.416 302.532 187.35 302.532 188.504C302.532 189.657 303.467 190.592 304.62 190.592Z" fill="#354259"/>
<path d="M322.597 92.5799L322.136 94.3777L344.608 100.148L345.07 98.35L322.597 92.5799Z" fill="#354259"/>
<path d="M340.892 215.31H268.505L268.747 204.559H340.943L340.892 215.31Z" fill="black"/>
<path d="M311.139 213.691C311.139 214.493 310.49 215.143 309.687 215.143H297.228C296.425 215.143 295.776 214.493 295.776 213.691V206.011C295.776 205.208 296.425 204.559 297.228 204.559H309.687C310.49 204.559 311.139 205.208 311.139 206.011V213.691Z" fill="#F0F0F0"/>
<path d="M318.192 251.596C318.475 251.703 318.749 251.819 319.036 251.912C327.945 254.742 337.463 249.819 340.298 240.91C343.124 232.033 339.625 219.212 330.776 216.345L329.848 216.113L236.905 197.635C236.877 197.626 236.849 197.612 236.817 197.603C229.388 195.297 221.49 199.445 219.179 206.874C216.873 214.303 221.021 222.196 228.45 224.507C228.863 224.637 229.281 224.734 229.694 224.827L318.192 251.596Z" fill="#2B3649"/>
<path d="M176.448 283.201L241.165 221.648C241.169 221.644 241.179 221.639 241.183 221.635C246.919 216.382 247.313 207.473 242.056 201.733C236.798 195.993 227.884 195.603 222.154 200.856C221.615 201.352 221.138 201.886 220.692 202.438L159.089 264.825C159.01 264.877 158.926 264.918 158.861 264.983C158.759 265.081 158.671 265.197 158.602 265.327L158.37 265.568L158.472 265.665C157.859 267.753 160.337 272.44 164.56 276.895C169.334 281.929 174.522 284.764 176.151 283.219C176.206 283.168 176.244 283.099 176.29 283.043L176.448 283.201Z" fill="#2B3649"/>
<path d="M332.094 213.027C330.837 213.027 329.816 214.048 329.816 215.305C329.816 216.563 330.837 217.584 332.094 217.584C333.352 217.584 334.373 216.563 334.373 215.305C334.373 214.048 333.352 213.027 332.094 213.027ZM332.094 216.976C331.171 216.976 330.419 216.229 330.419 215.301C330.419 214.373 331.171 213.626 332.094 213.626C333.018 213.626 333.769 214.373 333.769 215.301C333.769 216.229 333.022 216.976 332.094 216.976Z" fill="#8C8C8C"/>
<path d="M331.941 212.92C330.684 212.92 329.663 213.941 329.663 215.199C329.663 216.456 330.684 217.477 331.941 217.477C333.199 217.477 334.219 216.456 334.219 215.199C334.215 213.941 333.194 212.92 331.941 212.92ZM331.941 216.874C331.018 216.874 330.266 216.127 330.266 215.199C330.266 214.275 331.013 213.524 331.941 213.524C332.864 213.524 333.612 214.271 333.612 215.199C333.612 216.122 332.864 216.874 331.941 216.874Z" fill="#CFCFCF"/>
<path d="M338.321 220.544C337.922 218.674 337.263 217.398 337.217 215.496C337.212 215.37 337.11 215.268 336.985 215.268H327.839C327.714 215.268 327.612 215.37 327.607 215.496C327.556 217.398 326.902 218.674 326.498 220.544C326.159 220.739 325.834 220.953 325.519 221.18C323.705 222.493 322.28 224.312 321.449 226.433C322.071 227.37 323.129 227.996 324.336 228.01C324.948 226.173 326.173 224.618 327.765 223.579C329.101 222.707 330.693 222.201 332.405 222.201C337.105 222.201 340.92 226.015 340.92 230.716C340.92 233.43 339.648 235.848 337.667 237.407C336.247 238.525 334.465 239.202 332.526 239.226C332.396 239.592 332.321 239.987 332.321 240.4C332.321 241.175 332.572 241.889 332.994 242.469C335.361 242.353 337.542 241.532 339.337 240.219C342.265 238.08 344.168 234.623 344.168 230.716C344.177 226.377 341.82 222.586 338.321 220.544Z" fill="#8C8C8C"/>
<path d="M332.53 239.23C332.488 239.23 332.447 239.235 332.409 239.235C327.709 239.235 323.895 235.425 323.895 230.72C323.895 229.774 324.052 228.864 324.336 228.015C323.129 228.001 322.071 227.379 321.449 226.437C321.862 225.379 320.642 228.001 320.642 230.716C320.642 237.212 325.909 242.483 332.409 242.483C332.609 242.483 332.809 242.479 333.003 242.469C332.581 241.889 332.331 241.175 332.331 240.4C332.331 239.991 332.4 239.597 332.53 239.23Z" fill="#8C8C8C"/>
<path d="M337.482 220.544C337.083 218.674 336.424 217.398 336.377 215.496C336.373 215.37 336.271 215.268 336.145 215.268H326.999C326.874 215.268 326.772 215.37 326.767 215.496C326.716 217.398 326.062 218.674 325.658 220.544C325.32 220.739 324.995 220.953 324.679 221.18C322.865 222.493 321.44 224.312 320.61 226.433C321.232 227.37 322.29 227.996 323.496 228.01C324.109 226.173 325.334 224.618 326.925 223.579C328.261 222.707 329.853 222.201 331.565 222.201C336.266 222.201 340.08 226.015 340.08 230.716C340.08 233.43 338.809 235.848 336.827 237.407C335.407 238.525 333.626 239.202 331.686 239.226C331.556 239.592 331.486 239.987 331.486 240.4C331.486 241.175 331.737 241.889 332.159 242.469C334.526 242.353 336.707 241.532 338.502 240.219C341.43 238.08 343.333 234.623 343.333 230.716C343.333 226.377 340.98 222.586 337.482 220.544Z" fill="#CFCFCF"/>
<path d="M331.69 239.23C331.649 239.23 331.612 239.235 331.57 239.235C326.869 239.235 323.055 235.425 323.055 230.72C323.055 229.774 323.213 228.864 323.496 228.015C322.289 228.001 321.232 227.379 320.61 226.437C321.023 225.379 319.802 228.001 319.802 230.716C319.802 237.212 325.069 242.483 331.57 242.483C331.769 242.483 331.969 242.479 332.164 242.469C331.742 241.889 331.491 241.175 331.491 240.4C331.486 239.991 331.561 239.597 331.69 239.23Z" fill="#BDBDBD"/>
<path d="M332.628 217.333C332.628 216.772 332.173 216.312 331.607 216.312C331.046 216.312 330.586 216.767 330.586 217.333C330.586 217.746 330.837 218.104 331.19 218.261V219.57C331.19 219.686 331.287 219.783 331.403 219.783H331.807C331.923 219.783 332.02 219.686 332.02 219.57V218.261C332.377 218.104 332.628 217.746 332.628 217.333Z" fill="#9E9E9E"/>
<path d="M331.607 216.312C331.542 216.312 331.477 216.322 331.412 216.331C331.881 216.419 332.238 216.832 332.238 217.329C332.238 217.742 331.992 218.099 331.635 218.257V219.565C331.635 219.681 331.538 219.779 331.422 219.779H331.807C331.923 219.779 332.02 219.681 332.02 219.565V218.257C332.378 218.099 332.623 217.742 332.623 217.329C332.628 216.767 332.173 216.312 331.607 216.312Z" fill="#8C8C8C"/>
<path d="M242.659 322.856L251.387 240.298C251.387 240.293 251.392 240.284 251.392 240.274C252.353 232.558 246.872 225.519 239.151 224.558C231.43 223.598 224.391 229.082 223.43 236.799C223.342 237.523 223.323 238.242 223.347 238.952L217.528 320.123C217.5 320.211 217.467 320.299 217.454 320.392C217.44 320.536 217.449 320.68 217.477 320.819L217.454 321.153L217.597 321.162C218.484 323.148 223.407 325.111 229.513 325.761C236.413 326.499 242.2 325.287 242.436 323.06C242.446 322.986 242.432 322.907 242.427 322.833L242.659 322.856Z" fill="#1C2533"/>
<path d="M291.279 183.905C291.558 179.943 286.88 178.945 286.88 178.945L274.194 175.446C272.783 175.112 272.672 175.892 272.134 175.511C271.011 174.722 270.565 175.66 270.013 175.414C268.76 174.843 268.589 175.539 268.227 175.414C267.016 174.987 266.547 174.866 264.705 175.873C264.153 176.175 259.633 179.033 258.487 179.836C256.148 181.478 254.626 182.072 254.547 182.253C254.45 182.476 254.52 185.446 260.394 182.105C261.897 181.246 263.378 180.388 265.823 179.455C265.062 180.615 263.498 182.546 262.315 184.286C260.496 186.954 259.396 187.766 259.471 188.411C259.498 188.652 261.308 190.151 264.468 185.942C265.039 185.177 265.726 184.355 266.292 183.72C265.86 184.741 265.633 185.144 265.364 185.771C264.403 188.026 262.751 189.599 262.997 190.091C263.136 190.374 265.303 191.543 267.466 187.543C268.055 186.457 268.63 185.385 269.006 184.745C268.765 185.729 268.64 185.984 268.528 186.583C268.064 189.149 267.503 190.193 267.67 190.439C267.906 190.782 269.781 191.107 270.853 187.307C271.206 186.068 271.837 184.105 272.496 182.583C272.496 182.583 276.096 186.295 275.86 187.548C275.646 188.661 273.716 189.743 271.484 191.079C268.955 192.592 267.586 195.079 269.317 196.837C269.749 197.278 270.459 195.51 273.285 194.35C275.623 193.394 277.739 192.49 279.029 192.299C285.897 191.292 285.623 189.738 287.135 189.195C287.135 189.2 290.876 189.585 291.279 183.905Z" fill="#A96644"/>
<path d="M269.006 184.75C269.006 184.75 270.783 179.483 270.588 178.755C270.394 178.031 269.006 184.75 269.006 184.75Z" fill="#A96644"/>
<path d="M266.292 183.715C266.292 183.715 268.579 179.548 268.644 178.717C268.714 177.887 266.292 183.715 266.292 183.715Z" fill="#A96644"/>
<path d="M265.823 179.455C265.823 179.455 267.336 177.738 267.159 177.497C266.983 177.251 261.712 181.362 261.712 181.362C261.712 181.362 264.083 179.989 265.823 179.455Z" fill="#A96644"/>
<path d="M208.656 198.861L200.953 145.382H275.373L280.036 198.893L208.656 198.861Z" fill="url(#paint0_linear)"/>
<path d="M275.373 145.382H278.751L282.537 195.515L314.109 195.575V198.694L279.939 198.856L275.373 145.382Z" fill="#ACACB7"/>
<path d="M242.743 160.639C243.202 164.263 241.439 167.474 238.808 167.808C236.177 168.142 233.671 165.47 233.212 161.846C232.753 158.217 234.516 155.011 237.147 154.677C239.778 154.343 242.283 157.015 242.743 160.639Z" fill="white"/>
<path d="M328.215 169.437C327.876 169.145 327.584 168.848 327.343 168.551C326.958 168.078 326.689 167.558 326.489 166.922L326.48 166.89L326.466 166.862C326.201 166.124 326.085 165.326 326.122 164.486L326.127 164.435L326.122 164.384C326.053 161.92 326.503 158.449 327.538 153.461L327.988 151.266L328.095 150.747C331.788 132.937 335.607 114.525 338.744 108.553L338.758 108.53L338.767 108.507C338.781 108.474 338.8 108.442 338.823 108.409L338.883 108.298C338.948 108.177 339.022 108.052 339.097 107.936C340.54 105.495 342.929 103.857 345.672 103.412C347.175 103.166 348.739 103.296 350.196 103.792C351.333 104.182 352.372 104.771 353.272 105.551C355.37 107.361 356.562 109.987 356.539 112.757V112.957L356.599 113.152C356.618 113.221 356.641 113.286 356.664 113.356C355.94 116.404 355.203 119.676 354.423 123.133C349.973 142.909 343.876 169.994 334.865 171.46L334.832 171.465L334.776 171.479L334.698 171.498C334.623 171.516 334.549 171.53 334.475 171.544L334.09 171.623C333.811 171.669 333.486 171.692 333.087 171.683H332.944C332.563 171.692 332.206 171.697 331.978 171.614L331.927 171.59C331.872 171.567 331.816 171.544 331.76 171.521L331.635 171.47L331.598 171.465C331.449 171.409 331.036 171.238 330.494 170.955C330.401 170.908 330.327 170.866 330.252 170.825L330.21 170.801L330.034 170.704L329.974 170.672C329.798 170.57 329.617 170.463 329.45 170.351L329.222 170.203L329.218 170.198L329.176 170.17C329.125 170.138 329.078 170.105 329.032 170.073C328.735 169.86 328.461 169.651 328.215 169.437Z" fill="#A96644"/>
<path d="M358.033 113.305C357.982 113.115 357.917 112.952 357.862 112.771C357.903 108.284 355.096 104.071 350.627 102.544C348.971 101.978 347.185 101.83 345.472 102.108C342.294 102.628 339.588 104.535 337.992 107.24C337.909 107.375 337.821 107.519 337.737 107.672C337.691 107.76 337.64 107.848 337.593 107.941C334.572 113.69 330.999 130.348 327.519 147.109C332.526 148.194 340.874 149.93 348.73 151.178C352.447 139.188 355.356 124.497 358.033 113.305Z" fill="#414F6D"/>
<path d="M283.257 178.198C287.34 175.233 296.825 169.66 317.334 162.468C321.483 161.011 324.545 159.878 326.995 158.969C328.916 158.25 330.73 157.879 332.387 157.851H332.452L332.517 157.846C334.614 157.605 336.688 158.329 338.22 159.818L338.238 159.837L338.257 159.855C338.507 160.087 338.688 160.282 338.804 160.412L338.855 160.519L338.939 160.63C339.125 160.881 339.343 161.187 339.51 161.503C339.612 161.697 339.83 162.11 340.039 162.806C340.053 162.857 340.057 162.899 340.071 162.936L340.076 162.96L340.08 162.983L340.113 163.094C340.447 164.259 340.428 165.456 340.057 166.644C339.77 167.646 339.306 168.528 338.661 169.293L338.642 169.317L338.623 169.34C338.494 169.507 338.382 169.646 338.299 169.748L338.289 169.762C338.275 169.771 338.266 169.776 338.252 169.785C338.178 169.836 338.099 169.892 338.03 169.943L337.988 169.976L337.951 170.008C337.487 170.416 336.976 170.764 336.429 171.033L336.373 171.061L336.322 171.094C323.014 179.274 295.131 188.309 287.117 189.177C286.134 186.861 284.547 182.059 283.642 179.33C283.489 178.899 283.363 178.518 283.257 178.198Z" fill="#A96644"/>
<defs>
<linearGradient id="paint0_linear" x1="240.495" y1="189.583" x2="240.495" y2="144.059" gradientUnits="userSpaceOnUse">
<stop stop-color="#C9C9D1"/>
<stop offset="1" stop-color="#9F9FA5"/>
</linearGradient>
</defs>
</svg>
