<svg width="403" height="455" viewBox="0 0 403 455" fill="none" xmlns="http://www.w3.org/2000/svg">
<path fill-rule="evenodd" clip-rule="evenodd" d="M224.03 1.668C273.221 -8.72676 320.838 31.416 355.369 67.8782C386.233 100.468 398.84 145.637 402.676 190.307C405.902 227.876 384.181 260.572 375.058 297.164C364.939 337.754 375.358 385.966 346.363 416.178C316.062 447.751 267.799 452.493 224.03 454.53C178.429 456.653 131.746 452.224 93.112 427.965C52.8211 402.667 20.5282 364.081 7.31479 318.455C-5.66145 273.647 -1.75497 222.871 22.0996 182.76C43.9013 146.1 95.9492 144.479 127.726 115.982C165.762 81.871 173.993 12.2415 224.03 1.668Z" fill="#0F1D41"/>
</svg>
