<svg width="86" height="22" viewBox="0 0 86 22" fill="none" xmlns="http://www.w3.org/2000/svg">
<path d="M0.0100001 0.419999H4.36V17.22H15.46V21H0.0100001V0.419999ZM28.0098 21.36C24.7098 21.36 22.1498 20.48 20.3298 18.72C18.5098 16.94 17.5998 14.27 17.5998 10.71C17.5998 7.15 18.5098 4.49 20.3298 2.73C22.1498 0.949999 24.7098 0.0599996 28.0098 0.0599996C31.3298 0.0599996 33.8998 0.949999 35.7198 2.73C37.5398 4.49 38.4498 7.15 38.4498 10.71C38.4498 14.27 37.5398 16.94 35.7198 18.72C33.8998 20.48 31.3298 21.36 28.0098 21.36ZM28.0098 17.67C29.9698 17.67 31.4498 17.11 32.4498 15.99C33.4698 14.85 33.9798 13.24 33.9798 11.16V10.26C33.9798 8.18 33.4698 6.58 32.4498 5.46C31.4498 4.32 29.9698 3.75 28.0098 3.75C26.0498 3.75 24.5698 4.32 23.5698 5.46C22.5698 6.58 22.0698 8.18 22.0698 10.26V11.16C22.0698 13.24 22.5698 14.85 23.5698 15.99C24.5698 17.11 26.0498 17.67 28.0098 17.67ZM50.9095 21.36C47.7295 21.36 45.2695 20.49 43.5295 18.75C41.8095 17.01 40.9495 14.33 40.9495 10.71C40.9495 7.17 41.8695 4.51 43.7095 2.73C45.5495 0.949999 48.1495 0.0599996 51.5095 0.0599996C53.2895 0.0599996 54.9095 0.34 56.3695 0.899999C57.8495 1.44 59.0195 2.27 59.8795 3.39C60.7595 4.49 61.1995 5.84 61.1995 7.44H56.6995C56.6995 6.32 56.1995 5.43 55.1995 4.77C54.2195 4.09 53.0395 3.75 51.6595 3.75C49.5595 3.75 47.9895 4.31 46.9495 5.43C45.9295 6.55 45.4195 8.16 45.4195 10.26V11.16C45.4195 13.36 45.8895 15 46.8295 16.08C47.7895 17.14 49.2495 17.67 51.2095 17.67C52.8295 17.67 54.1695 17.29 55.2295 16.53C56.2895 15.75 56.8295 14.7 56.8495 13.38H50.6095V9.81H61.1995V21H58.1995L57.8095 18.72C56.8495 19.64 55.8395 20.31 54.7795 20.73C53.7195 21.15 52.4295 21.36 50.9095 21.36ZM74.7091 21.36C71.4091 21.36 68.8491 20.48 67.0291 18.72C65.2091 16.94 64.2991 14.27 64.2991 10.71C64.2991 7.15 65.2091 4.49 67.0291 2.73C68.8491 0.949999 71.4091 0.0599996 74.7091 0.0599996C78.0291 0.0599996 80.5991 0.949999 82.4191 2.73C84.2391 4.49 85.1491 7.15 85.1491 10.71C85.1491 14.27 84.2391 16.94 82.4191 18.72C80.5991 20.48 78.0291 21.36 74.7091 21.36ZM74.7091 17.67C76.6691 17.67 78.1491 17.11 79.1491 15.99C80.1691 14.85 80.6791 13.24 80.6791 11.16V10.26C80.6791 8.18 80.1691 6.58 79.1491 5.46C78.1491 4.32 76.6691 3.75 74.7091 3.75C72.7491 3.75 71.2691 4.32 70.2691 5.46C69.2691 6.58 68.7691 8.18 68.7691 10.26V11.16C68.7691 13.24 69.2691 14.85 70.2691 15.99C71.2691 17.11 72.7491 17.67 74.7091 17.67Z" fill="#46AE33"/>
</svg>
